<?xml version="1.0" encoding="utf-8"?>
<!-- Generator: Adobe Illustrator 19.0.0, SVG Export Plug-In . SVG Version: 6.00 Build 0)  -->
<svg version="1.1" id="Layer_1" xmlns="http://www.w3.org/2000/svg" xmlns:xlink="http://www.w3.org/1999/xlink" x="0px" y="0px"
	 width="1400px" height="1400px" viewBox="0 0 1400 1400" enable-background="new 0 0 1400 1400" xml:space="preserve">
<g id="XMLID_36_">
	<g id="XMLID_12_">
		<g id="XMLID_996_">
			<path id="XMLID_23_" fill="#FFFFFF" d="M269.8,763.1c-9.8,0-16.5-2-20.5-6c-4-4-6-10.8-6-20.5V521.1c0-9.8,2-16.5,6-20.5
				c4.1-4.1,10.8-6,20.5-6h215.4c9.8,0,16.5,2,20.5,6c4.1,4.1,6,10.8,6,20.5v215.4c0,9.8-2,16.5-6,20.5c-4,4-10.7,6-20.5,6H269.8z"
				/>
			<path id="XMLID_20_" fill="#004D8D" d="M485.2,497.5c8.9,0,15,1.7,18.5,5.2c3.4,3.4,5.2,9.6,5.2,18.5v215.4
				c0,8.9-1.7,15-5.2,18.5c-3.4,3.4-9.6,5.2-18.5,5.2H269.8c-8.9,0-15-1.7-18.5-5.2c-3.4-3.4-5.2-9.6-5.2-18.5V521.1
				c0-8.9,1.7-15,5.2-18.5c3.4-3.4,9.6-5.2,18.5-5.2H485.2 M485.2,491.6H269.8c-10.6,0-18,2.2-22.6,6.9c-4.6,4.6-6.9,12-6.9,22.6
				v215.4c0,10.6,2.2,18,6.9,22.6c4.6,4.6,12,6.9,22.6,6.9h215.4c10.6,0,18-2.3,22.6-6.9c4.6-4.6,6.9-12,6.9-22.6V521.1
				c0-10.6-2.3-18-6.9-22.6C503.2,493.9,495.8,491.6,485.2,491.6L485.2,491.6z"/>
		</g>
		<path id="XMLID_997_" fill="#004D8D" d="M503.7,736.6c0,6.9-1.4,11.7-4.1,14.4s-7.5,4.1-14.4,4.1H269.8c-6.9,0-11.7-1.4-14.4-4.1
			c-2.7-2.7-4.1-7.5-4.1-14.4V521.1c0-6.9,1.4-11.7,4.1-14.4c2.7-2.7,7.5-4.1,14.4-4.1h215.4c6.9,0,11.7,1.4,14.4,4.1
			c2.7,2.7,4.1,7.5,4.1,14.4V736.6z"/>
		<path id="XMLID_1006_" fill="#FFFFFF" d="M421.2,663c0.4-0.9,0.4-1.5,0-1.9c-0.4-0.5-1.2-0.8-2.4-0.8l-45.9,0.8
			c-1.6-0.4-2.7,0.1-3.3,1.4c0.2,0.9,1,2,2.4,3.3l14.4,12.5L333.5,710l9.2,13.8l49.1-36.9l6.5,17.9c0.4,1.8,1.1,2.8,2.2,3
			c0.7,0.2,1.5-0.5,2.4-1.9L421.2,663z"/>
		<text id="XMLID_994_" transform="matrix(1 0 0 1 329.0298 569.679)"><tspan x="0" y="0" fill="#FFFFFF" font-family="'FiraSansExtraCondensed-Medium'" font-size="53.326px">R</tspan><tspan x="27.2" y="0" fill="#FFFFFF" font-family="'FiraSansExtraCondensed-Medium'" font-size="53.326px">E</tspan><tspan x="49.8" y="0" fill="#FFFFFF" font-family="'FiraSansExtraCondensed-Medium'" font-size="53.326px" letter-spacing="-1">S</tspan><tspan x="73.5" y="0" fill="#FFFFFF" font-family="'FiraSansExtraCondensed-Medium'" font-size="53.326px">T</tspan><tspan x="-3.2" y="64" fill="#FFFFFF" font-family="'FiraSansExtraCondensed-Medium'" font-size="53.326px">AREA</tspan></text>
	</g>
	<g id="XMLID_2_">
		<g id="XMLID_1015_">
			<path id="XMLID_1016_" fill="#00855C" d="M983.2,799.7h240.5c3.8,0,6.9,3.1,6.9,6.9v70c0,3.8-3.1,6.9-6.9,6.9H983.2
				c-3.8,0-6.9-3.1-6.9-6.9v-70C976.3,802.8,979.4,799.7,983.2,799.7z"/>
			<g id="XMLID_1017_">
				<path id="XMLID_17_" fill="#FFFFFF" d="M993.1,889.6c-12.6,0-22.9-10.3-22.9-22.9v-50.3c0-12.6,10.3-22.9,22.9-22.9h220.7
					c12.6,0,22.9,10.3,22.9,22.9v50.3c0,12.6-10.3,22.9-22.9,22.9H993.1z M993.1,805.7c-5.9,0-10.7,4.8-10.7,10.7v50.3
					c0,5.9,4.8,10.7,10.7,10.7h220.7c5.9,0,10.7-4.8,10.7-10.7v-50.3c0-5.9-4.8-10.7-10.7-10.7H993.1z"/>
				<path id="XMLID_11_" fill="#00855C" d="M1213.8,796c11.3,0,20.4,9.2,20.4,20.4v50.3c0,11.3-9.2,20.4-20.4,20.4H993.1
					c-11.3,0-20.4-9.2-20.4-20.4v-50.3c0-11.3,9.2-20.4,20.4-20.4H1213.8 M993.1,879.9h220.7c7.2,0,13.1-5.9,13.1-13.1v-50.3
					c0-7.2-5.9-13.1-13.1-13.1H993.1c-7.2,0-13.1,5.9-13.1,13.1v50.3C979.9,874,985.8,879.9,993.1,879.9 M1213.8,791.2H993.1
					c-13.9,0-25.3,11.3-25.3,25.3v50.3c0,13.9,11.3,25.3,25.3,25.3h220.7c13.9,0,25.3-11.3,25.3-25.3v-50.3
					C1239.1,802.5,1227.7,791.2,1213.8,791.2L1213.8,791.2z M993.1,875c-4.6,0-8.3-3.7-8.3-8.3v-50.3c0-4.6,3.7-8.3,8.3-8.3h220.7
					c4.6,0,8.3,3.7,8.3,8.3v50.3c0,4.6-3.7,8.3-8.3,8.3H993.1L993.1,875z"/>
			</g>
		</g>
		<path id="XMLID_1464_" fill="#00855C" d="M1203.6,891.4H736.9c-18.2,0-33,14.8-33,33.1v263.6c0,18.2,14.8,33.1,33,33.1h466.6
			c18.2,0,33.1-14.8,33.1-33.1V924.5C1236.6,906.2,1221.8,891.4,1203.6,891.4z"/>
		<path id="XMLID_10_" fill="#FFCB05" d="M1228.1,1128.4v59.7c0,13.6-11,24.5-24.5,24.5H736.9c-13.5,0-24.5-11-24.5-24.5v-59.7
			H1228.1z"/>
		<path id="XMLID_5_" fill="#FFFFFF" d="M1021.6,942.2l-10.7-13.4c0,0-22.5,10.4-40.7,0c-18.1,10.4-40.7,0-40.7,0l-10.7,13.4
			c0,0,5.9,6.5,5.9,16.1c0,9.6-5.9,12.9-5.9,24c0,14,10.7,18.1,39.9,18.1c7,0,11.5,5.2,11.5,5.2s4.4-5.2,11.5-5.2
			c29.2,0,39.9-4.1,39.9-18.1c0-11.1-5.9-14.4-5.9-24C1015.7,948.7,1021.6,942.2,1021.6,942.2z"/>
		<text id="XMLID_1_" transform="matrix(1 0 0 1 933.9719 987.6167)"><tspan x="0" y="0" font-family="'FiraSansExtraCondensed-Medium'" font-size="59.6104px">1</tspan><tspan x="22.4" y="0" font-family="'FiraSansExtraCondensed-Medium'" font-size="59.6104px">7</tspan><tspan x="44.3" y="0" font-family="'FiraSansExtraCondensed-Medium'" font-size="59.6104px">8</tspan></text>
		<path id="XMLID_1457_" fill="#FFFFFF" d="M1203.6,1216.3H736.9c-15.5,0-28.2-12.6-28.2-28.2V924.5c0-15.5,12.6-28.2,28.2-28.2
			h466.6c15.5,0,28.2,12.6,28.2,28.2v263.6C1231.7,1203.6,1219.1,1216.3,1203.6,1216.3z M736.9,903.6c-11.5,0-20.9,9.4-20.9,20.9
			v263.6c0,11.5,9.4,20.9,20.9,20.9h466.6c11.5,0,20.9-9.4,20.9-20.9V924.5c0-11.5-9.4-20.9-20.9-20.9H736.9z"/>
		
			<text id="XMLID_4_" transform="matrix(1 0 0 1 796.4377 1187.8647)" font-family="'FiraSansExtraCondensed-Medium'" font-size="58.1679px">EXIT</text>
		<text id="XMLID_1461_" transform="matrix(1 0 0 1 848.7053 1096.7993)"><tspan x="0" y="0" fill="#FFFFFF" font-family="'FiraSansExtraCondensed-Medium'" font-size="58.1679px">7th A</tspan><tspan x="109" y="0" fill="#FFFFFF" font-family="'FiraSansExtraCondensed-Medium'" font-size="58.1679px">v</tspan><tspan x="133.5" y="0" fill="#FFFFFF" font-family="'FiraSansExtraCondensed-Medium'" font-size="58.1679px">enue</tspan></text>
		<text id="XMLID_1460_" transform="matrix(1 0 0 1 1052.7208 1187.8647)"><tspan x="0" y="0" font-family="'FiraSansExtraCondensed-Medium'" font-size="58.1679px">ON</tspan><tspan x="65.7" y="0" font-family="'FiraSansExtraCondensed-Medium'" font-size="58.1679px" letter-spacing="-5">L</tspan><tspan x="84.7" y="0" font-family="'FiraSansExtraCondensed-Medium'" font-size="58.1679px">Y</tspan></text>
		<polygon id="XMLID_1463_" points="990.6,1165.4 990.6,1146.2 975.3,1146.2 960,1146.2 960,1165.4 927.7,1165.4 975.3,1194.8 
			1022.9,1165.4 		"/>
		
			<text id="XMLID_1466_" transform="matrix(1 0 0 1 1001.0461 861.8569)" fill="#FFFFFF" font-family="'FiraSansExtraCondensed-Medium'" font-size="58.1679px" letter-spacing="2">EXIT</text>
		<text id="XMLID_1473_" transform="matrix(1 0 0 1 1123.3761 861.8569)"><tspan x="0" y="0" fill="#FFFFFF" font-family="'FiraSansExtraCondensed-Medium'" font-size="58.1679px" letter-spacing="2">2</tspan><tspan x="26.9" y="0" fill="#FFFFFF" font-family="'FiraSansExtraCondensed-Medium'" font-size="58.1679px" letter-spacing="1">0</tspan><tspan x="57.7" y="0" fill="#FFFFFF" font-family="'FiraSansExtraCondensed-Medium'" font-size="58.1679px" letter-spacing="2">1</tspan></text>
	</g>
	<g id="XMLID_995_">
		<g id="XMLID_1008_">
			<path id="XMLID_1467_" fill="#243F88" d="M1230.1,250.4H1015c-3.1,21.5-1.9,44,4.4,64.7c9.7,32.3,35.6,75.2,103.2,96.6
				c67.6-21.5,93.4-64.3,103.2-96.6C1232,294.4,1233.3,271.9,1230.1,250.4z"/>
			<path id="XMLID_1468_" fill="#D71920" d="M1228.9,243.2c-4-20.6-12.1-40.1-24-55.9c-15.2,4.7-27.9,6.9-40.5,6.9
				c-13.3,0-26.7-2.4-41.8-7.6c-15.2,5.2-28.5,7.6-41.8,7.6c-12.6,0-25.3-2.1-40.5-6.9c-11.9,15.8-20,35.3-24,55.9H1228.9z"/>
			<path id="XMLID_1472_" fill="#FFFFFF" d="M1207.5,178.8c-15.7,5.3-29.3,8.1-43.1,8.1c-13.2,0-26.5-2.6-41.8-8.1
				c-15.3,5.5-28.6,8.1-41.8,8.1c-13.8,0-27.4-2.8-43.1-8.1c-50.6,61.6-52.4,198.3,84.9,240.5
				C1259.9,377.2,1258.1,240.5,1207.5,178.8z M1122.6,411.8c-67.6-21.5-93.4-64.3-103.2-96.6c-6.3-20.8-7.5-43.2-4.4-64.7h215.1
				c3.1,21.5,1.9,44-4.4,64.7C1216,347.5,1190.2,390.3,1122.6,411.8z M1080.8,194.2c13.3,0,26.7-2.4,41.8-7.6
				c15.2,5.2,28.5,7.6,41.8,7.6c12.6,0,25.3-2.1,40.5-6.9c11.9,15.8,20,35.3,24,55.9h-212.6c4-20.6,12.1-40.1,24-55.9
				C1055.5,192,1068.1,194.2,1080.8,194.2z"/>
		</g>
		<text id="XMLID_998_" transform="matrix(1 0 0 1 1044.4304 228.4327)"><tspan x="0" y="0" fill="#FFFFFF" font-family="'FiraSansExtraCondensed-Medium'" font-size="32.3675px" letter-spacing="1">INTE</tspan><tspan x="60.6" y="0" fill="#FFFFFF" font-family="'FiraSansExtraCondensed-Medium'" font-size="32.3675px" letter-spacing="1">R</tspan><tspan x="78.5" y="0" fill="#FFFFFF" font-family="'FiraSansExtraCondensed-Medium'" font-size="32.3675px">S</tspan><tspan x="94.5" y="0" fill="#FFFFFF" font-family="'FiraSansExtraCondensed-Medium'" font-size="32.3675px">TA</tspan><tspan x="124.8" y="0" fill="#FFFFFF" font-family="'FiraSansExtraCondensed-Medium'" font-size="32.3675px" letter-spacing="1">TE</tspan></text>
		<text id="XMLID_999_" transform="matrix(1 0 0 1 1071.2244 351.6651)"><tspan x="0" y="0" fill="#FFFFFF" font-family="'FiraSansExtraCondensed-Medium'" font-size="104.381px" letter-spacing="4">8</tspan><tspan x="54.4" y="0" fill="#FFFFFF" font-family="'FiraSansExtraCondensed-Medium'" font-size="104.381px" letter-spacing="5">2</tspan></text>
	</g>
	<g id="XMLID_1002_">
		<g id="XMLID_1000_">
			<path id="XMLID_1502_" fill="#D1181F" d="M910.4,202.7H707.3c-5,0-7.5,2.3-7.5,7c0,1.8,0.6,3.5,1.7,5.3l100.8,176.2
				c1.6,2.7,3.8,4.1,6.5,4.1c2.7,0,4.9-1.4,6.5-4.1l101.1-176c1-1.8,1.5-3.5,1.5-5.3C917.9,205.2,915.4,202.7,910.4,202.7z
				 M859.8,247.7l-44.3,77.6c-1.4,2.4-3.7,3.6-6.8,3.6c-3.1,0-5.3-1.2-6.8-3.6l-44.5-77.8c-0.6-1.1-1-2.3-1-3.6c0-5.3,2.7-8,8-8
				h88.7c5.2,0,7.7,2.5,7.7,7.5C861,244.8,860.6,246.3,859.8,247.7z"/>
			<path id="XMLID_1503_" fill="#FFFFFF" d="M853.3,235.9h-88.7c-5.3,0-8,2.7-8,8c0,1.3,0.3,2.5,1,3.6l44.5,77.8
				c1.5,2.4,3.7,3.6,6.8,3.6c3.1,0,5.3-1.2,6.8-3.6l44.3-77.6c0.8-1.5,1.2-2.9,1.2-4.4C861,238.4,858.5,235.9,853.3,235.9z"/>
			<path id="XMLID_1499_" fill="#FFFFFF" d="M919.7,200.9c-2.5-2.3-5.6-3.5-9.3-3.5H707.3c-3.6,0-6.6,1.1-9.1,3.4
				c-2.5,2.3-3.7,5.2-3.7,8.7c0,2.7,0.8,5.6,2.4,8.5l100.8,176c2.6,4.5,6.3,6.8,11.1,6.8c4.8,0,8.5-2.3,11.1-6.8L921,217.7
				c1.6-2.7,2.4-5.4,2.4-8C923.4,206.2,922.2,203.3,919.7,200.9z M916.4,215.3l-101.1,176c-1.6,2.7-3.8,4.1-6.5,4.1
				c-2.7,0-4.9-1.4-6.5-4.1L701.5,215.1c-1.1-1.8-1.7-3.5-1.7-5.3c0-4.7,2.5-7,7.5-7h203.1c5,0,7.5,2.4,7.5,7.3
				C917.9,211.8,917.4,213.5,916.4,215.3z"/>
		</g>
		
			<text id="XMLID_1001_" transform="matrix(1 0 0 1 785.1845 258.6643)" fill="#D1181F" font-family="'FiraSansExtraCondensed-Medium'" font-size="20.4755px" letter-spacing="1">YIELD</text>
	</g>
	<g id="XMLID_1005_">
		<g id="XMLID_1003_">
			<path id="XMLID_1513_" fill="#FFFFFF" d="M874.4,760.5V497.1c0-9.7-4.9-14.5-14.8-14.5h-206c-9.9,0-14.8,4.8-14.8,14.5v263.4
				c0,9.7,4.9,14.5,14.8,14.5h206C869.5,775,874.4,770.2,874.4,760.5z"/>
			<path id="XMLID_1512_" d="M868.7,760.5c0,5.8-3,8.8-9.1,8.8h-206c-6,0-9.1-2.9-9.1-8.8V497.1c0-5.8,3-8.8,9.1-8.8h206
				c6,0,9.1,2.9,9.1,8.8V760.5z"/>
			<path id="XMLID_1511_" fill="#FFFFFF" d="M862.6,760.5V497.1c0-1.8-1-2.7-3-2.7h-206c-2,0-3,0.9-3,2.7v263.4c0,1.8,1,2.7,3,2.7
				h206C861.6,763.3,862.6,762.3,862.6,760.5z"/>
		</g>
		<text id="XMLID_1004_" transform="matrix(1 0 0 1 680.3718 558.6904)"><tspan x="0" y="0" font-family="'FiraSansExtraCondensed-Medium'" font-size="58.3699px" letter-spacing="2">SPEED</tspan><tspan x="10.1" y="70" font-family="'FiraSansExtraCondensed-Medium'" font-size="58.3699px" letter-spacing="2">LIMIT</tspan></text>
		
			<text id="XMLID_1009_" transform="matrix(1 0 0 1 675.3694 732.287)" font-family="'Montserrat-Bold'" font-size="113.2159px" letter-spacing="5">60</text>
	</g>
	<g id="XMLID_1013_">
		<g id="XMLID_1010_">
			<g id="XMLID_1012_">
				<polygon id="XMLID_9_" fill="#FFFFFF" points="1080.3,739.7 1015.4,674.8 1015.4,582.9 1080.3,518 1172.2,518 1237.1,582.9 
					1237.1,674.8 1172.2,739.7 				"/>
				<path id="XMLID_6_" fill="#D1181F" d="M1171.4,520l63.7,63.7V674l-63.7,63.7h-90.3l-63.7-63.7v-90.3l63.7-63.7H1171.4 M1173,516
					h-1.6h-90.3h-1.6l-1.2,1.2l-63.7,63.7l-1.2,1.2v1.6V674v1.6l1.2,1.2l63.7,63.7l1.2,1.2h1.6h90.3h1.6l1.2-1.2l63.7-63.7l1.2-1.2
					V674v-90.3V582l-1.2-1.2l-63.7-63.7L1173,516L1173,516z"/>
			</g>
			<polygon id="XMLID_1014_" fill="#D1181F" points="1230.2,672.2 1169.6,732.8 1083.1,732.8 1022.3,672 1022.3,585.5 1082.9,524.9 
				1169.6,524.9 1230.2,585.5 			"/>
		</g>
		<text id="XMLID_1011_" transform="matrix(1 0 0 1 1039.8625 657.5101)"><tspan x="0" y="0" fill="#FFFFFF" font-family="'FiraSansExtraCondensed-Medium'" font-size="81.0046px" letter-spacing="2">S</tspan><tspan x="40" y="0" fill="#FFFFFF" font-family="'FiraSansExtraCondensed-Medium'" font-size="81.0046px" letter-spacing="1">T</tspan><tspan x="76.9" y="0" fill="#FFFFFF" font-family="'FiraSansExtraCondensed-Medium'" font-size="81.0046px" letter-spacing="4">OP</tspan></text>
	</g>
	<g id="XMLID_1476_">
		<g id="XMLID_1477_">
			<path id="XMLID_1491_" fill="#FFFFFF" d="M519.6,974.1c0,0,0,0-30.7-40.1c-38.3,17.4-76.9,20-111.4,0c-34.5,20-73.1,17.4-111.4,0
				c-30.7,40.1-30.7,40.1-30.7,40.1s25.4,37.4,25.4,68.1c0,30.7-24,42.7-24,76.1s32.6,73.8,111.7,73.8c20.4,0,29,11.7,29,11.7
				s8.6-11.7,29-11.7c79.2,0,111.7-32.4,111.7-65.8s-24-53.4-24-84.1C494.2,1011.5,519.6,974.1,519.6,974.1z"/>
			<path id="XMLID_1494_" d="M377.4,1212.1l-4-5.3c-0.3-0.4-7.6-9.6-24.9-9.6c-80.2,0-116.7-40.9-116.7-78.8
				c0-18.3,6.6-30.4,13-42.1c5.7-10.4,11-20.2,11-34c0-28.8-24.3-64.9-24.6-65.3l-2-3l35.3-46.1l3.6,1.6
				c40,18.1,75.9,18.2,106.8,0.2l2.5-1.5l2.5,1.5c30.9,18,66.8,17.9,106.8-0.2l3.6-1.6l35.3,46.1l-2,3c-0.2,0.4-24.6,36.5-24.6,65.3
				c0,13.9,5.4,25.7,11.2,38.1c6.3,13.7,12.9,27.8,12.9,46c0,19.5-10.1,37.1-28.4,49.6c-20.7,14.1-50.4,21.2-88.4,21.2
				c-17.4,0-24.7,9.3-25,9.7L377.4,1212.1z M241.5,974.4c6.2,9.8,24.3,40.8,24.3,67.9c0,16.3-6.2,27.7-12.3,38.8
				c-6.1,11.1-11.8,21.6-11.8,37.3c0,33.1,33.4,68.8,106.7,68.8c14.8,0,24.1,5.6,29,9.6c4.8-4,14.2-9.6,29-9.6
				c35.4,0,64-6.7,82.7-19.5c15.5-10.5,24-25.2,24-41.3c0-15.9-5.8-28.5-11.9-41.8c-6-12.9-12.1-26.2-12.1-42.3
				c0-27,18.2-58.1,24.3-67.9l-26.2-34.1c-40.6,17.4-77.5,17.3-109.8-0.4c-32.3,17.7-69.2,17.9-109.8,0.4L241.5,974.4z"/>
		</g>
		<g id="XMLID_1474_">
			<line id="XMLID_1481_" fill="#FFFFFF" x1="258.5" y1="1024.6" x2="495.8" y2="1024.6"/>
			<rect id="XMLID_1483_" x="258.5" y="1019.6" width="237.3" height="10"/>
		</g>
		<text id="XMLID_1020_" transform="matrix(1 0 0 1 302.316 1006.1537)"><tspan x="0" y="0" font-family="'FiraSansExtraCondensed-Medium'" font-size="57.3823px" letter-spacing="2">r</tspan><tspan x="31.6" y="0" font-family="'FiraSansExtraCondensed-Medium'" font-size="57.3823px" letter-spacing="2">oute</tspan></text>
		<text id="XMLID_1478_" transform="matrix(1 0 0 1 321.1666 1152.1439)"><tspan x="0" y="0" font-family="'FiraSansExtraCondensed-Medium'" font-size="133.7196px" letter-spacing="6">7</tspan><tspan x="57.5" y="0" font-family="'FiraSansExtraCondensed-Medium'" font-size="133.7196px" letter-spacing="6">2</tspan></text>
	</g>
	<g id="XMLID_1530_">
		<g id="XMLID_1523_">
			<path id="XMLID_1525_" fill="#00855C" d="M572.8,381.5H182.2c-7.7,0-14-6.3-14-14V230.7c0-7.7,6.3-14,14-14h390.6
				c7.7,0,14,6.3,14,14v136.8C586.8,375.2,580.6,381.5,572.8,381.5z"/>
			<g id="XMLID_1527_">
				<path id="XMLID_1548_" fill="#FFFFFF" d="M197.1,386.6c-18.8,0-34.1-15.3-34.1-34.1V245.6c0-18.8,15.3-34.1,34.1-34.1h360.7
					c18.8,0,34.1,15.3,34.1,34.1v106.9c0,18.8-15.3,34.1-34.1,34.1H197.1z M197.1,221.9c-13.1,0-23.8,10.7-23.8,23.8v106.9
					c0,13.1,10.7,23.8,23.8,23.8h360.7c13.1,0,23.8-10.7,23.8-23.8V245.6c0-13.1-10.7-23.8-23.8-23.8H197.1z"/>
				<g id="XMLID_1531_">
					<path id="XMLID_1532_" fill="#00855C" d="M557.9,213.6c17.7,0,32.1,14.4,32.1,32.1v106.9c0,17.7-14.4,32.1-32.1,32.1H197.1
						c-17.7,0-32.1-14.4-32.1-32.1V245.6c0-17.7,14.4-32.1,32.1-32.1H557.9 M197.1,378.4h360.7c14.3,0,25.9-11.6,25.9-25.9V245.6
						c0-14.3-11.6-25.9-25.9-25.9H197.1c-14.3,0-25.9,11.6-25.9,25.9v106.9C171.3,366.8,182.9,378.4,197.1,378.4 M557.9,209.5H197.1
						c-20,0-36.2,16.2-36.2,36.2v106.9c0,20,16.2,36.2,36.2,36.2h360.7c20,0,36.2-16.2,36.2-36.2V245.6
						C594.1,225.7,577.8,209.5,557.9,209.5L557.9,209.5z M197.1,374.2c-12,0-21.7-9.7-21.7-21.7V245.6c0-12,9.7-21.7,21.7-21.7
						h360.7c12,0,21.7,9.7,21.7,21.7v106.9c0,12-9.7,21.7-21.7,21.7H197.1L197.1,374.2z"/>
				</g>
			</g>
		</g>
		<path id="XMLID_1528_" fill="#FFFFFF" d="M227,305.5c0.8,1.3,1.5,1.9,2.2,1.7c1-0.2,1.6-1.1,1.9-2.7l5.8-16l43.8,32.9l8.2-12.3
			l-47.2-28.3l12.8-11.1c1.3-1.1,2-2.1,2.2-2.9c-0.5-1.1-1.5-1.5-2.9-1.2l-40.9-0.7c-1.1,0-1.8,0.2-2.2,0.7c-0.3,0.3-0.3,0.9,0,1.7
			L227,305.5z"/>
		<text id="XMLID_1529_" transform="matrix(1 0 0 1 357.7608 282.3449)"><tspan x="0" y="0" fill="#FFFFFF" font-family="'FiraSansExtraCondensed-Medium'" font-size="49.4981px" letter-spacing="2">Kin</tspan><tspan x="68.7" y="0" fill="#FFFFFF" font-family="'FiraSansExtraCondensed-Medium'" font-size="49.4981px" letter-spacing="2">g</tspan><tspan x="92.8" y="0" fill="#FFFFFF" font-family="'FiraSansExtraCondensed-Medium'" font-size="49.4981px" letter-spacing="2">s </tspan><tspan x="-13.2" y="59.4" fill="#FFFFFF" font-family="'FiraSansExtraCondensed-Medium'" font-size="49.4981px" letter-spacing="2">A</tspan><tspan x="13.9" y="59.4" fill="#FFFFFF" font-family="'FiraSansExtraCondensed-Medium'" font-size="49.4981px" letter-spacing="2">v</tspan><tspan x="37.2" y="59.4" fill="#FFFFFF" font-family="'FiraSansExtraCondensed-Medium'" font-size="49.4981px" letter-spacing="2">enue</tspan></text>
	</g>
</g>
</svg>
